# xmcd
#
# Track frame offsets:
#   150
#   13816
#   31416
#   47059
#   65977
#   84488
#   102237
#
# Disc length: 1599 seconds
#
# Revision: 0
# Processed by: cddbd v1.5.1PL2 Copyright (c) Steve Scherf et al.
# Submitted via: GXTranscoder 2.0.1939
#
DISCID=5a063d07
DTITLE=Agrip Nassim - ?
DYEAR=1900
DGENRE=Blues
TTITLE0=Gallus
TTITLE1=Endgegner
TTITLE2=Wie ein Engel
TTITLE3=Schau mich an
TTITLE4=Augenblick
TTITLE5=Ab 18 (Feat. Saad)
TTITLE6=Schmetterling
EXTD=
EXTT0=
EXTT1=
EXTT2=
EXTT3=
EXTT4=
EXTT5=
EXTT6=
PLAYORDER=
